<svg width="102" height="102" viewBox="0 0 102 102" fill="none" xmlns="http://www.w3.org/2000/svg">
<rect width="102" height="102" fill="#1E1E1E"/>
<path d="M3 55H96V42H2L3 55Z" fill="white" stroke="black"/>
<path d="M6.5 15L95.5 40L100 27.5L10 2L6.5 15Z" fill="white" stroke="black"/>
<mask id="path-3-outside-1_0_1" maskUnits="userSpaceOnUse" x="0" y="0" width="102" height="102" fill="black">
<rect fill="white" width="102" height="102"/>
<path d="M1 41.5154V99.8421C1 100.123 1.11519 100.392 1.32023 100.591C1.52528 100.789 1.80337 100.901 2.09335 100.901H95.5797C95.8697 100.901 96.1478 100.789 96.3528 100.591C96.5578 100.392 96.673 100.123 96.673 99.8421V41.5154C96.6707 41.3272 96.6174 41.1429 96.5183 40.9809L96.5802 40.931L96.6318 40.891C96.6666 40.8632 96.6978 40.8313 96.7246 40.7961L96.771 40.7462L96.8484 40.6313C96.86 40.6163 96.8688 40.5993 96.8742 40.5813C96.9061 40.5241 96.932 40.4638 96.9515 40.4015L100.82 27.3745C100.899 27.1049 100.865 26.8158 100.725 26.5704C100.585 26.3251 100.35 26.1436 100.072 26.0658L92.6349 23.9779L84.2336 21.6403L76.8587 19.5873L66.1779 16.5903L59.9015 14.8421L51.6756 12.5893L47.3693 11.3855L35.6983 8.13877L34.5946 7.82908L19.3033 3.57333L11.196 1.31059L10.2212 1.04086C9.94291 0.963722 9.64434 0.996652 9.39103 1.13243C9.13773 1.26821 8.95036 1.49575 8.87004 1.76514L5.00722 14.7921C4.96961 14.9269 4.96073 15.0678 4.98112 15.206C5.00151 15.3443 5.05075 15.4771 5.12584 15.5963C5.26628 15.839 5.49971 16.0185 5.77566 16.0958L11.9696 17.8341L20.082 20.0918L28.3698 22.3995L29.1537 22.6193L62.769 31.9699L68.7824 33.6483L76.9 35.906L79.5302 36.6403L93.197 40.4614H2.09335C1.80426 40.4614 1.52695 40.5723 1.32205 40.7698C1.11716 40.9673 1.00136 41.2354 1 41.5154ZM17.7457 54.0029L13.1403 42.5693H19.4167L24.0222 54.0129L17.7457 54.0029ZM34.8009 54.0029L30.1955 42.5693H36.0696L40.6751 54.0129L34.8009 54.0029ZM51.4281 54.0029L46.8226 42.5693H53.0371L57.6426 54.0129L51.4281 54.0029ZM68.4214 54.0029L63.8159 42.5693H69.917L74.5224 54.0129L68.4214 54.0029ZM85.3063 54.0029L80.7009 42.5593H87.0959L91.7014 54.0029H85.3063ZM20.2367 6.03087L26.2708 7.71419L27.4312 19.937L21.3971 18.2586L20.2367 6.03087ZM36.6318 10.5963L42.2584 12.1597L43.4188 24.3875L37.7922 22.8241L36.6318 10.5963ZM52.6194 15.0469L58.5915 16.7102L59.7519 28.938L53.7695 27.2746L52.6194 15.0469ZM68.9474 19.5973L74.8164 21.2307L75.9665 33.4684L70.1078 31.8251L68.9474 19.5973ZM85.1774 24.0928L91.3249 25.8061L92.4853 38.0339L86.3378 36.3206L85.1774 24.0928ZM6.96699 54.0129H3.18154V44.6173L6.96699 54.0129ZM10.0614 5.33657L11.0155 15.3715L7.40536 14.3725L10.0614 5.33657ZM3.18154 98.7881V56.1258H94.4657V98.7881H3.18154Z"/>
</mask>
<path d="M1 41.5154V99.8421C1 100.123 1.11519 100.392 1.32023 100.591C1.52528 100.789 1.80337 100.901 2.09335 100.901H95.5797C95.8697 100.901 96.1478 100.789 96.3528 100.591C96.5578 100.392 96.673 100.123 96.673 99.8421V41.5154C96.6707 41.3272 96.6174 41.1429 96.5183 40.9809L96.5802 40.931L96.6318 40.891C96.6666 40.8632 96.6978 40.8313 96.7246 40.7961L96.771 40.7462L96.8484 40.6313C96.86 40.6163 96.8688 40.5993 96.8742 40.5813C96.9061 40.5241 96.932 40.4638 96.9515 40.4015L100.82 27.3745C100.899 27.1049 100.865 26.8158 100.725 26.5704C100.585 26.3251 100.35 26.1436 100.072 26.0658L92.6349 23.9779L84.2336 21.6403L76.8587 19.5873L66.1779 16.5903L59.9015 14.8421L51.6756 12.5893L47.3693 11.3855L35.6983 8.13877L34.5946 7.82908L19.3033 3.57333L11.196 1.31059L10.2212 1.04086C9.94291 0.963722 9.64434 0.996652 9.39103 1.13243C9.13773 1.26821 8.95036 1.49575 8.87004 1.76514L5.00722 14.7921C4.96961 14.9269 4.96073 15.0678 4.98112 15.206C5.00151 15.3443 5.05075 15.4771 5.12584 15.5963C5.26628 15.839 5.49971 16.0185 5.77566 16.0958L11.9696 17.8341L20.082 20.0918L28.3698 22.3995L29.1537 22.6193L62.769 31.9699L68.7824 33.6483L76.9 35.906L79.5302 36.6403L93.197 40.4614H2.09335C1.80426 40.4614 1.52695 40.5723 1.32205 40.7698C1.11716 40.9673 1.00136 41.2354 1 41.5154ZM17.7457 54.0029L13.1403 42.5693H19.4167L24.0222 54.0129L17.7457 54.0029ZM34.8009 54.0029L30.1955 42.5693H36.0696L40.6751 54.0129L34.8009 54.0029ZM51.4281 54.0029L46.8226 42.5693H53.0371L57.6426 54.0129L51.4281 54.0029ZM68.4214 54.0029L63.8159 42.5693H69.917L74.5224 54.0129L68.4214 54.0029ZM85.3063 54.0029L80.7009 42.5593H87.0959L91.7014 54.0029H85.3063ZM20.2367 6.03087L26.2708 7.71419L27.4312 19.937L21.3971 18.2586L20.2367 6.03087ZM36.6318 10.5963L42.2584 12.1597L43.4188 24.3875L37.7922 22.8241L36.6318 10.5963ZM52.6194 15.0469L58.5915 16.7102L59.7519 28.938L53.7695 27.2746L52.6194 15.0469ZM68.9474 19.5973L74.8164 21.2307L75.9665 33.4684L70.1078 31.8251L68.9474 19.5973ZM85.1774 24.0928L91.3249 25.8061L92.4853 38.0339L86.3378 36.3206L85.1774 24.0928ZM6.96699 54.0129H3.18154V44.6173L6.96699 54.0129ZM10.0614 5.33657L11.0155 15.3715L7.40536 14.3725L10.0614 5.33657ZM3.18154 98.7881V56.1258H94.4657V98.7881H3.18154Z" fill="black"/>
<path d="M1 41.5154V99.8421C1 100.123 1.11519 100.392 1.32023 100.591C1.52528 100.789 1.80337 100.901 2.09335 100.901H95.5797C95.8697 100.901 96.1478 100.789 96.3528 100.591C96.5578 100.392 96.673 100.123 96.673 99.8421V41.5154C96.6707 41.3272 96.6174 41.1429 96.5183 40.9809L96.5802 40.931L96.6318 40.891C96.6666 40.8632 96.6978 40.8313 96.7246 40.7961L96.771 40.7462L96.8484 40.6313C96.86 40.6163 96.8688 40.5993 96.8742 40.5813C96.9061 40.5241 96.932 40.4638 96.9515 40.4015L100.82 27.3745C100.899 27.1049 100.865 26.8158 100.725 26.5704C100.585 26.3251 100.35 26.1436 100.072 26.0658L92.6349 23.9779L84.2336 21.6403L76.8587 19.5873L66.1779 16.5903L59.9015 14.8421L51.6756 12.5893L47.3693 11.3855L35.6983 8.13877L34.5946 7.82908L19.3033 3.57333L11.196 1.31059L10.2212 1.04086C9.94291 0.963722 9.64434 0.996652 9.39103 1.13243C9.13773 1.26821 8.95036 1.49575 8.87004 1.76514L5.00722 14.7921C4.96961 14.9269 4.96073 15.0678 4.98112 15.206C5.00151 15.3443 5.05075 15.4771 5.12584 15.5963C5.26628 15.839 5.49971 16.0185 5.77566 16.0958L11.9696 17.8341L20.082 20.0918L28.3698 22.3995L29.1537 22.6193L62.769 31.9699L68.7824 33.6483L76.9 35.906L79.5302 36.6403L93.197 40.4614H2.09335C1.80426 40.4614 1.52695 40.5723 1.32205 40.7698C1.11716 40.9673 1.00136 41.2354 1 41.5154ZM17.7457 54.0029L13.1403 42.5693H19.4167L24.0222 54.0129L17.7457 54.0029ZM34.8009 54.0029L30.1955 42.5693H36.0696L40.6751 54.0129L34.8009 54.0029ZM51.4281 54.0029L46.8226 42.5693H53.0371L57.6426 54.0129L51.4281 54.0029ZM68.4214 54.0029L63.8159 42.5693H69.917L74.5224 54.0129L68.4214 54.0029ZM85.3063 54.0029L80.7009 42.5593H87.0959L91.7014 54.0029H85.3063ZM20.2367 6.03087L26.2708 7.71419L27.4312 19.937L21.3971 18.2586L20.2367 6.03087ZM36.6318 10.5963L42.2584 12.1597L43.4188 24.3875L37.7922 22.8241L36.6318 10.5963ZM52.6194 15.0469L58.5915 16.7102L59.7519 28.938L53.7695 27.2746L52.6194 15.0469ZM68.9474 19.5973L74.8164 21.2307L75.9665 33.4684L70.1078 31.8251L68.9474 19.5973ZM85.1774 24.0928L91.3249 25.8061L92.4853 38.0339L86.3378 36.3206L85.1774 24.0928ZM6.96699 54.0129H3.18154V44.6173L6.96699 54.0129ZM10.0614 5.33657L11.0155 15.3715L7.40536 14.3725L10.0614 5.33657ZM3.18154 98.7881V56.1258H94.4657V98.7881H3.18154Z" stroke="white" stroke-width="2" mask="url(#path-3-outside-1_0_1)"/>
<path d="M2.5 55.5V100H95V55.5H2.5Z" fill="black" stroke="black"/>
<path d="M11 67.5H87M11 79.5H31M87 79.5H66.5M31 79.5V91.5M31 79.5H66.5M66.5 79.5V91.5" stroke="white"/>
</svg>
